<?xml version="1.0" encoding="utf-8"?>
<!-- Generator: Adobe Illustrator 22.0.1, SVG Export Plug-In . SVG Version: 6.00 Build 0)  -->
<svg version="1.1" id="Layer_1" xmlns="http://www.w3.org/2000/svg" xmlns:xlink="http://www.w3.org/1999/xlink" x="0px" y="0px"
	 viewBox="0 0 122.8 28.2" style="enable-background:new 0 0 122.8 28.2;" xml:space="preserve">
<style type="text/css">
	.st0{fill:#333333;}
	.st1{clip-path:url(#SVGID_3_);fill:url(#SVGID_4_);}
	.st2{clip-path:url(#SVGID_7_);fill:url(#SVGID_8_);}
	.st3{clip-path:url(#SVGID_11_);fill:url(#SVGID_12_);}
</style>
<g>
	<path class="st0" d="M61.8,28.2c-3.1,0-5.5-0.9-7.2-2.6c-1.6-1.7-2.5-4.2-2.5-7.4c0-1.6,0.3-3,0.8-4.3c0.5-1.3,1.2-2.3,2.1-3.2
		s1.9-1.5,3.1-2C59.3,8.3,60.6,8,62,8c0.8,0,1.6,0.1,2.2,0.2c0.7,0.1,1.3,0.3,1.8,0.4c0.5,0.2,0.9,0.3,1.3,0.5
		c0.3,0.2,0.6,0.3,0.7,0.4L66.8,13c-0.6-0.3-1.3-0.6-2.1-0.8C63.9,12,63,11.9,62,11.9c-0.7,0-1.3,0.1-2,0.3
		c-0.6,0.2-1.2,0.6-1.7,1.1c-0.5,0.5-0.9,1.1-1.2,1.9c-0.3,0.8-0.4,1.7-0.4,2.8c0,0.9,0.1,1.7,0.3,2.5c0.2,0.8,0.5,1.4,0.9,2
		c0.4,0.6,1,1,1.7,1.3c0.7,0.3,1.6,0.5,2.6,0.5c0.6,0,1.2,0,1.7-0.1c0.5-0.1,0.9-0.2,1.3-0.3c0.4-0.1,0.7-0.2,1-0.3
		c0.3-0.1,0.6-0.3,0.8-0.4l1.2,3.5c-0.6,0.4-1.5,0.7-2.6,1C64.6,28,63.3,28.2,61.8,28.2z"/>
	<path class="st0" d="M87.7,18c0,1.7-0.2,3.1-0.7,4.4c-0.5,1.3-1.2,2.3-2,3.1c-0.9,0.8-1.9,1.5-3.1,1.9c-1.2,0.4-2.4,0.6-3.8,0.6
		c-1.3,0-2.6-0.2-3.7-0.6c-1.2-0.4-2.2-1.1-3.1-1.9c-0.9-0.8-1.6-1.9-2.1-3.1c-0.5-1.3-0.8-2.7-0.8-4.4s0.3-3.1,0.8-4.4
		c0.5-1.3,1.2-2.3,2.1-3.2c0.9-0.9,1.9-1.5,3.1-1.9c1.2-0.4,2.4-0.6,3.7-0.6c1.3,0,2.6,0.2,3.7,0.6c1.2,0.4,2.2,1.1,3.1,1.9
		c0.9,0.9,1.6,1.9,2.1,3.2C87.5,14.9,87.7,16.3,87.7,18z M73,18c0,0.9,0.1,1.8,0.3,2.6c0.2,0.8,0.6,1.4,1,2c0.4,0.5,1,1,1.6,1.3
		c0.6,0.3,1.4,0.4,2.2,0.4c0.8,0,1.5-0.1,2.2-0.4c0.6-0.3,1.2-0.7,1.6-1.3c0.4-0.5,0.8-1.2,1-2c0.2-0.8,0.3-1.6,0.3-2.6
		s-0.1-1.8-0.3-2.6c-0.2-0.8-0.6-1.4-1-2c-0.4-0.5-1-1-1.6-1.3c-0.6-0.3-1.4-0.4-2.2-0.4c-0.8,0-1.5,0.2-2.2,0.5
		c-0.6,0.3-1.2,0.7-1.6,1.3c-0.4,0.5-0.8,1.2-1,2C73.1,16.2,73,17,73,18z"/>
	<path class="st0" d="M106.8,18.1c0,1.7-0.3,3.1-0.8,4.4c-0.5,1.2-1.3,2.3-2.2,3.1c-1,0.8-2.1,1.4-3.5,1.8C99,27.8,97.4,28,95.7,28
		c-0.8,0-1.7,0-2.7-0.1c-1-0.1-2.1-0.2-3.1-0.4V8.7c1-0.2,2-0.3,3.1-0.4c1.1-0.1,2-0.1,2.8-0.1c1.7,0,3.2,0.2,4.5,0.6
		c1.3,0.4,2.5,1,3.5,1.8c1,0.8,1.7,1.8,2.2,3.1C106.6,14.9,106.8,16.3,106.8,18.1z M94.3,24.2c0.2,0,0.4,0,0.7,0c0.3,0,0.6,0,1,0
		c2.2,0,3.8-0.5,4.8-1.6c1-1.1,1.6-2.6,1.6-4.5c0-2-0.5-3.6-1.5-4.6s-2.6-1.6-4.8-1.6c-0.3,0-0.6,0-0.9,0c-0.3,0-0.6,0-0.9,0.1V24.2
		z"/>
	<path class="st0" d="M109.1,28V8.7h13v3.6h-8.7v3.8h7.7v3.6h-7.7v4.7h9.3V28H109.1z"/>
	<g>
		<g>
			<defs>
				<path id="SVGID_1_" d="M20.2,0.8C20,1.4,19.9,2,19.7,2.6c-2.1,5.7-4.7,7.1-11.1,8c0.3-1.9,2.1-5.2,6.1-7c-2.9,0-6.8,3.1-7.3,7.3
					c-0.2,2.2,0,8.9,0,8.9c0,2.4,0.9,3.4,2.3,3.4c0.9,0,1.9-0.3,3.1-0.9l1.2,4c-0.4,0.2-0.8,0.5-1.2,0.6c-1.4,0.6-2.8,1-4.2,1
					c-3.7,0-6.6-2.5-6.6-7.2V10.6H0V6.7h2.1v-6h5.3V3C10.4,0.1,15.5-0.8,20.2,0.8z"/>
			</defs>
			<linearGradient id="SVGID_2_" gradientUnits="userSpaceOnUse" x1="0" y1="13.9959" x2="20.1775" y2="13.9959">
				<stop  offset="0" style="stop-color:#61BC50"/>
				<stop  offset="1" style="stop-color:#0096A6"/>
			</linearGradient>
			<use xlink:href="#SVGID_1_"  style="overflow:visible;fill:url(#SVGID_2_);"/>
			<clipPath id="SVGID_3_">
				<use xlink:href="#SVGID_1_"  style="overflow:visible;"/>
			</clipPath>
			<linearGradient id="SVGID_4_" gradientUnits="userSpaceOnUse" x1="3.0813" y1="-5.3973" x2="41.8678" y2="33.3891">
				<stop  offset="0" style="stop-color:#61BC50"/>
				<stop  offset="1" style="stop-color:#0096A6"/>
			</linearGradient>
			<rect x="-1.5" y="-0.8" class="st1" width="48" height="29.5"/>
		</g>
		<g>
			<defs>
				<path id="SVGID_5_" d="M15.2,18.2c0-1.6,0.2-3.1,0.7-4.3c0.5-1.2,1.2-2.3,2-3.1c0.8-0.8,1.7-1.5,2.8-1.9
					c1.1-0.4,2.1-0.6,3.2-0.6c2.7,0,4.8,0.8,6.2,2.4c1.4,1.6,2.1,4,2.1,7.1c0,0.3,0,0.6,0,1s0,0.6-0.1,0.8h-12
					c0,1.2,0.5,2.2,1.5,2.9c1,0.7,2.3,1,3.9,1c1,0,1.9-0.1,2.8-0.3c0.9-0.2,1.6-0.4,2.2-0.6l0.7,4.1c-0.8,0.3-1.7,0.5-2.7,0.7
					c-0.9,0.2-2,0.3-3.2,0.3c-1.6,0-3-0.2-4.2-0.6c-1.2-0.4-2.3-1-3.2-1.8c-0.9-0.8-1.6-1.8-2-3C15.5,21.1,15.2,19.7,15.2,18.2z
					 M27.7,16.2c0-0.5-0.1-1-0.2-1.4c-0.1-0.5-0.3-0.9-0.6-1.2c-0.3-0.4-0.7-0.7-1.1-0.9c-0.4-0.2-1-0.3-1.7-0.3
					c-0.6,0-1.2,0.1-1.6,0.3c-0.5,0.2-0.8,0.5-1.1,0.9c-0.3,0.4-0.5,0.8-0.7,1.3c-0.2,0.5-0.3,1-0.3,1.5H27.7z"/>
			</defs>
			<linearGradient id="SVGID_6_" gradientUnits="userSpaceOnUse" x1="15.2484" y1="17.9848" x2="32.3617" y2="17.9848">
				<stop  offset="0" style="stop-color:#61BC50"/>
				<stop  offset="1" style="stop-color:#0096A6"/>
			</linearGradient>
			<use xlink:href="#SVGID_5_"  style="overflow:visible;fill:url(#SVGID_6_);"/>
			<clipPath id="SVGID_7_">
				<use xlink:href="#SVGID_5_"  style="overflow:visible;"/>
			</clipPath>
			<linearGradient id="SVGID_8_" gradientUnits="userSpaceOnUse" x1="-0.6681" y1="-7.6177" x2="45.4684" y2="38.5188">
				<stop  offset="0" style="stop-color:#61BC50"/>
				<stop  offset="1" style="stop-color:#0096A6"/>
			</linearGradient>
			<rect x="-6.2" y="-2.1" class="st2" width="57.1" height="35.1"/>
		</g>
		<g>
			<defs>
				<path id="SVGID_9_" d="M41.8,8.3c1.5,0,2.8,0.2,3.8,0.5c1,0.4,1.8,0.9,2.4,1.5c0.6,0.6,1,1.4,1.3,2.4c0.3,0.9,0.4,2,0.4,3.1v11
					C49,27,48,27.2,46.6,27.4c-1.4,0.2-3,0.3-4.7,0.3c-1.2,0-2.3-0.1-3.2-0.3c-1-0.2-1.8-0.6-2.5-1c-0.7-0.5-1.2-1.1-1.6-1.9
					c-0.4-0.8-0.6-1.7-0.6-2.9c0-1.1,0.2-2,0.6-2.7c0.4-0.7,1-1.3,1.7-1.8c0.7-0.4,1.5-0.8,2.4-1c0.9-0.2,1.9-0.3,2.9-0.3
					c1.3,0,2.4,0.1,3.4,0.3v-0.6c0-0.9-0.3-1.7-0.9-2.3c-0.6-0.6-1.6-0.9-3-0.9c-0.9,0-1.8,0.1-2.7,0.2c-0.9,0.1-1.5,0.3-2.1,0.5
					l-0.7-3.9c0.6-0.2,1.5-0.4,2.6-0.6C39.5,8.4,40.6,8.3,41.8,8.3z M42.2,23.8c0.5,0,1,0,1.5,0c0.5,0,0.9,0,1.3-0.1v-4.3
					c-0.3-0.1-0.7-0.1-1.1-0.1c-0.4,0-0.9-0.1-1.2-0.1c-0.5,0-1,0-1.5,0.1c-0.5,0.1-0.9,0.2-1.2,0.3c-0.4,0.2-0.6,0.4-0.8,0.7
					c-0.2,0.3-0.3,0.7-0.3,1.1c0,0.8,0.3,1.4,0.9,1.8C40.4,23.7,41.2,23.8,42.2,23.8z"/>
			</defs>
			<linearGradient id="SVGID_10_" gradientUnits="userSpaceOnUse" x1="34.0774" y1="18.0217" x2="49.7315" y2="18.0217">
				<stop  offset="0" style="stop-color:#61BC50"/>
				<stop  offset="1" style="stop-color:#0096A6"/>
			</linearGradient>
			<use xlink:href="#SVGID_9_"  style="overflow:visible;fill:url(#SVGID_10_);"/>
			<clipPath id="SVGID_11_">
				<use xlink:href="#SVGID_9_"  style="overflow:visible;"/>
			</clipPath>
			<linearGradient id="SVGID_12_" gradientUnits="userSpaceOnUse" x1="-0.4428" y1="-7.5808" x2="45.6937" y2="38.5557">
				<stop  offset="0" style="stop-color:#61BC50"/>
				<stop  offset="1" style="stop-color:#0096A6"/>
			</linearGradient>
			<rect x="-5.9" y="-2.1" class="st3" width="57.1" height="35.1"/>
		</g>
	</g>
</g>
</svg>
